<svg width="81" height="64" viewBox="0 0 81 64" fill="none" xmlns="http://www.w3.org/2000/svg">
<path d="M34.657 0.505393C34.8759 0.737709 35.1427 0.693855 35.364 0.763893C37.5178 1.44559 39.3248 2.63761 40.7715 4.3425C41.0591 4.68151 41.315 4.75569 41.7374 4.66341C46.1186 3.70633 50.8032 5.65276 52.8921 9.34532C53.2632 10.0015 53.701 10.381 54.3962 10.6921C56.9059 11.8152 58.0359 13.9125 58.2483 16.5209C58.3102 17.2808 58.4485 17.958 58.8023 18.6448C59.7994 20.5797 59.9799 22.5854 58.8738 24.5311C58.5004 25.1879 58.2133 25.7898 58.2991 26.5456C58.3229 26.7551 58.3126 27.0069 58.215 27.1844C57.8381 27.8702 58.1496 28.3634 58.5455 28.927C60.8931 32.2692 61.269 35.9108 60.1482 39.76C60.0901 39.9592 59.9775 40.1366 60.0605 40.3749C60.7043 42.2227 61.0032 44.1574 61.515 46.0396C62.5192 49.7328 66.3202 50.4746 69.1866 48.7148C69.4915 48.5276 69.4014 48.3663 69.3096 48.1481C68.8898 47.15 68.6765 46.1233 68.8015 45.0339C68.9914 43.3778 69.7783 42.0799 71.2087 41.2046C71.8297 40.8246 72.0039 40.4198 71.7967 39.7164C71.6021 39.056 71.6415 38.3391 71.7763 37.6576C72.0918 36.0623 73.7962 35.191 75.5956 35.6803C76.2012 35.845 76.7423 36.1363 77.2404 36.509C80.2953 38.7943 81.8229 43.8455 80.5496 47.4193C79.9887 48.9936 78.9757 50.1904 77.5171 51.0274C77.3293 51.1352 77.1423 51.215 77.033 51.4383C75.3972 54.7785 72.5353 56.5985 69.0302 57.5137C65.3987 58.4619 61.8529 58.1816 58.4824 56.4382C58.3926 56.3917 58.2843 56.4626 58.2616 56.5611C58.0969 57.2748 57.9653 57.9903 57.7436 58.6776C56.6662 62.0183 53.7839 63.4028 50.453 62.1666C49.8405 61.9392 49.2533 61.821 48.6013 61.8384C47.446 61.8692 46.3899 61.5323 45.4845 60.8044C44.8079 60.2604 44.3903 59.5553 44.2209 58.7125C44.1129 58.1752 43.4407 57.5446 42.8853 57.5405C41.6631 57.5313 40.4407 57.5617 39.2184 57.5574C38.9254 57.5564 38.8578 57.6985 38.7995 57.9375C38.683 58.4146 38.5698 58.8983 38.3877 59.3531C37.1142 62.5343 33.4025 63.9343 30.1459 62.4574C29.7134 62.2612 29.3282 62.2005 28.8414 62.2705C26.4908 62.6085 24.7309 61.6077 23.3711 59.7888C22.5932 58.7482 22.0447 57.5869 21.5758 56.3896C21.4385 56.0392 21.2594 55.8596 20.865 55.8065C18.4606 55.4828 16.3403 54.5364 14.5599 52.8997C14.2369 52.6027 13.8568 52.6447 13.4942 52.6086C11.6087 52.4209 9.79494 51.9797 8.08152 51.1733C6.70817 50.527 5.49689 49.6866 4.54356 48.5066C4.20876 48.0922 3.84105 47.6985 3.53744 47.2607C3.15923 46.7154 2.95158 46.0924 2.73351 45.4835C2.25858 44.1575 2.80763 43.0053 3.06333 41.6192C3.23689 40.6785 1.93691 40.0816 1.52818 39.2166L0.917587 37.9245C0.843028 37.7667 0.785367 37.6015 0.745567 37.4316C0.254403 35.3348 0.225218 33.1562 0.660036 31.047L0.777879 30.4754C1.0786 29.0569 1.68608 27.9851 2.54032 26.9755C2.90146 26.5487 2.95505 26.1591 2.78834 25.6244C1.74238 22.2696 1.9256 19.0023 3.65435 15.8858C4.11691 15.0519 4.69557 14.2821 5.48767 13.7194C5.91512 13.4158 6.05744 13.0586 6.03525 12.5624C5.95203 10.7013 6.23767 8.88691 7.0155 7.19068C8.63291 3.66353 11.4013 1.72188 15.357 1.45579C17.6124 1.30408 19.7369 1.71147 21.7289 2.76374C22.111 2.96554 22.4333 2.94568 22.7794 2.67954C24.2755 1.52902 26.0006 0.862653 27.8709 0.39627C29.8979 -0.0560199 31.8853 -0.132766 33.8841 0.226197C34.1385 0.271897 34.4025 0.300398 34.657 0.505393Z" fill="#040404"/>
<path d="M77.2358 60.7324C77.0181 60.5106 76.8272 60.4679 76.5342 60.5095C76.1212 60.5682 75.7683 60.3442 75.6105 59.9317C75.4544 59.5238 75.5561 59.1566 75.8956 58.876C76.2235 58.6049 76.5805 58.5966 76.9252 58.8374C77.2876 59.0905 77.4138 59.4544 77.2704 59.8684C77.1858 60.1124 77.1433 60.3085 77.3507 60.506C77.4653 60.6152 77.4316 60.7118 77.2358 60.7324Z" fill="#869198"/>
<path d="M56.2452 22.3969C56.0955 23.2663 55.6897 23.9137 54.9668 24.3448C54.6534 24.5317 54.5455 24.7198 54.7537 25.0959C55.163 25.8353 55.1716 26.6104 54.7223 27.3493C54.3841 27.9053 54.4406 28.4322 54.7791 28.9537C55.0687 29.4 55.361 29.8448 55.6604 30.2846C57.6838 33.256 57.9236 36.4232 56.6768 39.7406C56.5579 40.0569 56.5225 40.2953 56.6556 40.6205C57.3227 42.2513 57.5749 43.9963 58.0046 45.693C58.135 46.2076 58.2933 46.7152 58.4453 47.2241C59.5888 51.0535 63.7171 53.0789 67.7878 51.6097C69.1272 51.1262 70.2744 50.3436 71.2803 49.3379C71.5715 49.0467 71.6589 48.871 71.3246 48.5051C70.5558 47.6635 70.1398 46.6544 70.2001 45.4833C70.2429 44.6491 70.5449 43.9529 71.2326 43.4488C71.5031 43.2505 71.7684 43.0448 72.0426 42.8518C73.1303 42.0862 73.5541 41.0844 73.2026 39.7675C73.0973 39.3729 73.0462 38.9603 73.0472 38.5394C73.0481 38.0968 73.2599 37.9926 73.6378 38.0278C74.0507 38.0662 74.379 38.2822 74.6902 38.528C76.7733 40.1733 77.9273 43.9528 77.1267 46.4871C76.693 47.8601 75.7966 48.7861 74.4463 49.2737C74.2657 49.3389 74.087 49.3393 74.0069 49.591C73.0828 52.4944 70.894 54.0915 68.1551 54.9683C64.2446 56.2203 60.5256 55.8181 57.1599 53.2927C56.7498 52.985 56.3275 52.6937 55.9165 52.3872C55.6858 52.2151 55.5732 52.2003 55.502 52.5425C55.2846 53.5867 55.1883 54.6466 55.0446 55.7002C54.9351 56.5023 54.806 57.301 54.5574 58.0718C53.9639 59.9126 52.5934 60.6734 50.7813 59.9836C49.791 59.6066 48.8856 59.1939 47.793 59.4608C47.4478 59.5451 47.0572 59.3648 46.7176 59.1972C46.1904 58.937 45.877 58.5289 45.9586 57.921C46.0606 57.1609 45.7034 56.6861 45.079 56.337C44.6193 56.08 44.1024 55.8855 43.8798 55.3394C43.8117 55.1722 43.6541 55.2083 43.5226 55.1981C41.1528 55.0141 38.7866 55.1804 36.4193 55.2666C36.1179 55.2775 36.0811 55.4235 36.0706 55.676C36.0313 56.6232 35.9281 57.5644 35.584 58.4572C34.6454 60.8922 31.2609 61.4351 29.6236 59.4107C29.472 59.2234 29.3904 59.1366 29.184 59.3378C28.1517 60.3441 26.515 60.0777 25.4834 58.9833C24.7687 58.225 24.2836 57.3257 23.8738 56.3827C23.5288 55.5886 23.2055 54.7847 22.8902 53.9783C22.7829 53.7041 22.6344 53.594 22.3263 53.5835C19.6111 53.4915 17.2331 52.6111 15.3898 50.5342C15.2183 50.3409 15.0209 50.3395 14.8052 50.3286C12.8225 50.229 10.8916 49.9007 9.0742 49.0531C6.6238 47.9102 5.22929 45.9909 4.85854 43.324C4.74449 42.5036 4.82926 41.6773 5.25442 40.9718C5.56944 40.449 5.42016 40.1535 5.02887 39.8369C3.90653 38.9285 3.27352 37.7273 2.97282 36.3398C2.44745 33.9157 2.72269 31.5988 3.96114 29.4264C4.469 28.5356 5.14448 27.7946 6.06873 27.3264C6.39114 27.163 6.31179 27.0508 6.16351 26.8094C4.36293 23.879 4.25314 20.8223 5.59031 17.7042C6.14571 16.409 7.08308 15.4252 8.4543 14.9595C8.82105 14.8349 8.76743 14.643 8.71958 14.381C8.40281 12.6471 8.43118 10.9251 8.93959 9.22767C10.179 5.08941 13.4528 3.71496 16.9701 4.09789C18.8816 4.306 20.5872 5.02127 22.0014 6.35879C22.1375 6.48756 22.2277 6.60785 22.4088 6.37707C24.5177 3.6901 27.4491 2.75003 30.6945 2.66328C34.4417 2.56312 37.3776 4.10158 39.3123 7.37494C39.5096 7.70878 39.6673 7.6655 39.9595 7.5545C42.6003 6.55137 45.1763 6.65048 47.6303 8.11487C49.1699 9.03363 50.1925 10.3777 50.6328 12.1268C50.7085 12.4277 50.7992 12.5378 51.1163 12.5637C53.1779 12.7317 54.5626 14.0505 54.9134 16.1503C54.9556 16.4033 55.0415 16.6694 55.0018 16.9121C54.8247 17.9934 55.2544 18.8811 55.7733 19.7801C56.2241 20.5611 56.3933 21.4359 56.2452 22.3969Z" fill="#F3F3F3"/>
<path d="M77.0509 59.6017C76.7983 60.2345 76.3343 60.4129 76.008 60.0356C75.8387 59.8398 75.7388 59.6126 75.8726 59.3391C75.9893 59.1005 76.1824 58.9857 76.4294 58.9844C76.8012 58.9824 76.9869 59.2115 77.0509 59.6017Z" fill="#F3F3F3"/>
<path d="M10.7831 14.7149C9.4996 14.6442 9.498 14.6443 9.39884 13.3485C9.26729 11.6294 9.45626 9.95499 10.2011 8.38381C11.5564 5.52502 14.7069 4.2294 18.0258 5.13847C19.3855 5.51089 20.5454 6.23179 21.5938 7.15789C21.8161 7.35424 21.8947 7.54272 21.797 7.82655C21.7163 8.06109 21.7059 8.36022 21.9519 8.45706C22.2159 8.56099 22.4066 8.31516 22.5578 8.1057C22.592 8.05835 22.6228 8.00435 22.6388 7.94871C23.1466 6.18484 24.5127 5.25897 26.0574 4.5779C28.5286 3.48836 31.0975 3.24498 33.7404 3.89347C35.5577 4.3394 36.945 5.3609 37.9505 6.92444C38.0891 7.13993 38.2094 7.37517 38.3836 7.55803C38.7481 7.9406 38.6922 8.19598 38.2435 8.46687C37.9816 8.62501 37.5463 8.86524 37.7977 9.22433C38.0681 9.61059 38.4736 9.39011 38.7745 9.12478C39.7269 8.28481 40.92 8.07611 42.1052 7.88857C44.2119 7.55522 46.212 7.75256 47.8583 9.30387C49.1564 10.5271 50.005 11.9689 49.9488 13.8245C49.9452 13.9423 49.9427 14.0657 49.9723 14.178C50.0354 14.4167 50.1633 14.6525 50.4271 14.656C50.6734 14.6593 50.7747 14.4343 50.8147 14.2043C50.8248 14.1461 50.8448 14.0896 50.8548 14.0314C50.9845 13.2701 51.014 13.2532 51.775 13.5141C53.3613 14.058 54.4697 16.0033 54.1786 17.7085C54.1344 17.9674 54.0097 18.0269 53.7767 18.0098C53.6075 17.9973 53.3894 17.941 53.3104 18.1567C53.2337 18.366 53.3666 18.54 53.5162 18.6732C53.647 18.7896 53.789 18.9099 53.948 18.9753C55.1066 19.4517 55.6898 21.3115 55.3292 22.5638C55.1771 23.0918 54.7985 23.3737 54.3911 23.6543C53.444 24.3067 53.422 24.3575 53.9603 25.346C54.2159 25.8155 54.2977 26.3243 54.0576 26.7678C53.297 28.1727 53.8256 29.2938 54.714 30.3886C55.9222 31.8776 56.5143 33.6136 56.6203 35.5113C56.8759 40.0872 53.6185 44.1972 49.1357 44.9696C48.4322 45.0908 47.7238 45.093 47.0165 44.946C46.3153 44.8003 45.7202 44.4965 45.277 43.9173C45.0082 43.5661 44.6774 43.2865 44.237 43.1745C44.0894 43.137 43.894 43.0636 43.7963 43.2089C43.7125 43.3335 43.7669 43.5188 43.8391 43.6629C44.0127 44.0092 44.3206 44.238 44.607 44.4746C45.014 44.8108 45.0359 45.1186 44.765 45.587C43.3364 48.057 41.4745 50.0093 38.6718 50.8923C37.1199 51.3813 35.5367 51.4489 33.93 51.2684C33.299 51.1975 32.6698 51.2028 32.1185 51.7314C32.6652 51.9755 33.2098 52.0079 33.7397 52.0883C38.2454 52.7719 42.7957 50.6651 44.9742 46.883C45.2474 46.4086 45.3638 45.6913 45.7599 45.4862C46.1097 45.305 46.7416 45.7329 47.261 45.8035C49.7511 46.1421 51.8669 45.2517 53.7791 43.7451C54.6525 43.0569 55.3944 42.2426 56.0934 41.2029C56.3518 42.3834 56.5893 43.4581 56.8218 44.5339C57.0298 45.4968 57.2587 46.4538 57.5712 47.3894C59.3045 52.5779 65.1662 54.2756 69.6593 51.7279C70.611 51.1882 71.4247 50.4712 72.1572 49.661C72.2628 49.5442 72.3635 49.4161 72.4906 49.3281C72.6003 49.2521 72.7522 49.204 72.8773 49.3047C72.9875 49.3935 72.9292 49.5269 72.9063 49.6357C72.6903 50.6589 72.126 51.4743 71.38 52.1819C69.7936 53.6868 67.8524 54.366 65.7268 54.6174C61.4851 55.1188 58.0278 53.6542 55.259 50.4503C55.1467 50.3204 55.0732 50.0447 54.8125 50.1627C54.6128 50.2532 54.5109 50.4783 54.5928 50.6633C55.0144 51.6147 54.6222 52.5573 54.5521 53.4899C54.4385 55.0006 54.1469 56.4952 53.6208 57.9264C53.031 59.5311 51.094 59.8745 49.9147 58.6039C49.5752 58.238 49.4792 57.8014 49.5631 57.341C49.7525 56.3026 49.3685 55.6335 48.3764 55.2693C47.8065 55.06 47.3989 54.6157 47.007 54.1659C46.7087 53.8235 46.4101 53.4768 45.9958 53.2667C45.8241 53.1796 45.6309 53.0655 45.454 53.2451C45.2697 53.432 45.3933 53.6278 45.5097 53.777C45.8191 54.1738 45.7192 54.2695 45.2413 54.2705C42.4967 54.2759 39.7521 54.304 37.0075 54.3269C36.4938 54.3312 35.9841 54.3686 35.4808 54.4916C35.1689 54.5678 35.0551 54.6658 35.1006 55.0471C35.2248 56.089 35.2052 57.1345 34.7691 58.1256C34.3042 59.1822 33.525 59.7744 32.3444 59.7911C31.2102 59.8073 30.4388 59.2597 29.9558 58.2645C29.4949 57.3148 29.3259 56.2809 29.0994 55.2634C29.0377 54.986 29.1796 54.9066 29.4055 54.8861C29.6843 54.8607 29.946 54.7789 30.1914 54.6496C30.368 54.5566 30.5757 54.4321 30.506 54.2099C30.438 53.9935 30.2241 53.8976 29.9818 53.9046C29.6739 53.9135 29.4082 54.0551 29.1539 54.1959C28.694 54.4505 28.2685 54.4719 27.8253 54.1594C27.5764 53.9839 27.2492 53.8533 27.0561 54.1805C26.8945 54.4546 27.0802 54.7886 27.3505 54.8579C28.3148 55.1051 28.4025 55.8826 28.5412 56.6534C28.5934 56.943 28.7001 57.2234 28.7452 57.5137C28.7949 57.834 29.1444 58.1695 28.7691 58.4821C28.3335 58.8449 27.8416 59.0882 27.2466 58.9657C26.742 58.8618 26.346 58.5689 26.0143 58.1938C24.8528 56.8803 24.2934 55.2461 23.6278 53.6697C23.4821 53.3245 23.811 53.3903 23.9551 53.3581C24.4342 53.2508 24.9218 53.1819 25.4042 53.0885C25.66 53.039 25.8951 52.927 26.0814 52.7446C26.2296 52.5993 26.4606 52.4401 26.3191 52.2038C26.1967 51.9994 25.9421 51.9898 25.7272 52.0663C25.1329 52.2779 24.5301 52.4293 23.9033 52.5297C21.0418 52.988 18.4779 52.4617 16.4151 50.2971C15.7935 49.6449 15.1267 49.3925 14.1979 49.3765C11.91 49.337 9.76416 48.7095 7.90225 47.3037C6.07373 45.9231 5.32993 43.4371 6.07332 41.2655C6.31482 40.56 6.46756 39.8215 7.08214 39.3027C7.24516 39.1651 7.35891 38.9037 7.18008 38.7204C6.96379 38.4986 6.75063 38.697 6.5631 38.8409C6.53201 38.8647 6.50587 38.8952 6.4783 38.9235C5.87207 39.5448 5.83673 39.5548 5.25599 38.8755C3.96954 37.3707 3.55512 35.5785 3.57489 33.6499C3.59879 31.3183 4.51985 29.4606 6.45642 28.1185C6.74357 27.9195 6.90441 27.9082 7.1427 28.1703C7.61885 28.694 8.05788 29.2662 8.69911 29.6102C8.86463 29.699 8.84491 29.8228 8.83157 29.9591C8.80982 30.1814 8.81931 30.4184 8.95049 30.588C9.36505 31.124 9.22004 31.6738 9.08903 32.2576C8.59191 34.4726 8.40454 36.7071 8.86709 38.9521C9.62392 42.6254 12.4772 45.3419 16.287 46.1035C18.644 46.5747 21.0313 46.586 23.4158 46.6651C23.9684 46.6834 24.5216 46.6782 25.0744 46.69C25.5282 46.6998 26.066 46.5723 26.4133 46.7721C26.8142 47.0029 26.5061 47.6047 26.6246 48.0268C26.6828 48.2339 26.7381 48.4479 26.8384 48.6354C26.9756 48.8919 27.227 49.1079 27.5042 49.0146C27.7525 48.9311 27.5839 48.6312 27.5766 48.4302C27.5681 48.195 27.5212 47.9605 27.4831 47.727C27.2897 46.5432 27.6521 45.7751 28.7364 45.2664C29.375 44.9668 30.068 44.7851 30.7184 44.5077C31.0178 44.3799 31.11 44.5814 31.2498 44.7262C31.8846 45.3837 32.5505 45.9914 33.4568 46.2602C33.6464 46.3164 33.8283 46.3833 34.064 46.3382C33.956 45.9622 33.6523 45.7793 33.3794 45.5765C33.1583 45.4123 32.9282 45.2582 32.6916 45.1173C31.2217 44.2416 31.545 42.7102 32.3054 41.884C33.3376 40.7624 34.695 40.4126 36.1458 40.3146C36.9636 40.2594 37.7522 40.4232 38.5243 40.6904C39.1436 40.9048 39.7793 41.0745 40.4329 40.8726C40.7033 40.7891 41.0919 40.6823 41.0515 40.3421C41.0073 39.9697 40.6256 39.9306 40.2944 39.9467C40.1374 39.9543 39.9805 39.9767 39.8251 40.0019C38.611 40.199 37.7616 39.8013 37.2992 38.6611C36.5044 36.7011 36.488 34.6845 37.4894 32.822C38.4158 31.099 40.1231 30.3918 41.9831 30.1138C43.411 29.9004 44.7793 30.0777 45.9367 31.0694C46.067 31.181 46.2409 31.2481 46.4035 31.3139C46.5808 31.3857 46.8097 31.5152 46.9447 31.3252C47.0908 31.1195 47.0051 30.8713 46.8539 30.6672C46.6483 30.3896 46.3132 30.2812 46.0065 30.0289C46.9189 29.6871 47.744 29.2567 48.4519 28.6375C50.2747 27.0431 51.4759 25.0969 51.6313 22.6364C51.9198 18.0677 47.9291 15.3303 43.7861 17.284C42.0502 18.1025 40.6372 19.3256 39.7553 21.1172C38.0722 24.5363 35.5887 27.2322 32.2226 29.0587C30.8861 29.7839 29.4361 30.184 27.9003 30.0272C26.3351 29.8675 25.4778 28.9475 25.2967 27.3748C25.0621 25.3361 25.6381 23.514 26.775 21.8469C27.4305 20.8857 28.1229 19.9495 28.7779 18.988C29.0499 18.5886 29.2675 18.1523 29.5732 17.6234C29.1739 17.6919 28.9947 17.8831 28.8289 18.0442C26.6542 20.1566 24.909 22.5218 24.4492 25.6256C24.4188 25.8308 24.3637 25.9934 24.1684 26.1099C22.6398 27.0221 21.0316 27.6843 19.2135 27.6394C17.6067 27.5997 16.585 26.8789 16.183 25.3256C15.3395 22.0666 15.6939 19.0181 18.0523 16.419C18.7418 15.6591 19.4831 14.9465 20.1886 14.2008C20.5499 13.8189 20.8848 13.412 21.2894 12.9503C20.6569 12.8729 20.2948 13.1801 19.9342 13.4643C18.2306 14.8067 16.7737 16.3595 15.8343 18.4382C14.4044 16.8019 13.1395 15.0459 10.7831 14.7149Z" fill="#F9C923"/>
<path d="M9.6501 30.2675C9.69106 30.2059 9.73803 30.1643 9.7837 30.1657C9.98038 30.1717 10.2324 30.4012 10.3552 30.119C10.4678 29.8605 10.2869 29.6282 10.0922 29.4465C10.0211 29.3801 9.93578 29.3251 9.84916 29.2798C7.05474 27.8207 5.95163 25.2876 5.51855 22.3645C5.24609 20.5256 5.73387 18.8368 6.81697 17.3369C8.34837 15.2163 10.7415 14.8844 12.8049 16.4784C13.6218 17.1094 14.3428 17.8292 14.9509 18.6702C15.342 19.2109 15.4037 19.747 15.2606 20.3937C14.8704 22.1557 14.8805 23.9225 15.4547 25.6517C16.0436 27.4252 17.2758 28.3436 19.1408 28.4543C21.0169 28.5656 22.7206 28.0648 24.2826 26.9707C24.4119 27.4793 24.5015 27.9559 24.6546 28.4111C25.2047 30.0477 26.3353 30.8891 28.0526 30.9324C30.2671 30.9882 32.2502 30.2662 34.0095 28.9753C36.8494 26.8915 39.1532 24.3673 40.6359 21.0986C41.3567 19.5094 42.8758 18.6499 44.4735 18.0233C44.9858 17.8224 45.5217 17.7001 46.074 17.6365C49.2939 17.2658 50.9944 19.8265 50.8399 22.1908C50.6366 25.3024 49.0788 27.6126 46.2479 28.9885C45.4565 29.3732 44.6237 29.4818 43.7199 29.2282C42.7952 28.9688 41.8286 29.0964 40.917 29.3901C38.4024 30.2002 36.4619 31.5982 36.02 34.4242C35.7523 36.1356 35.8937 37.8027 36.7518 39.4314C35.6998 39.4788 34.7144 39.581 33.772 39.9306C32.868 40.2659 32.06 40.732 31.4623 41.5093C31.1193 41.9553 30.8365 42.4527 30.8533 43.0173C30.8717 43.6392 30.5464 43.771 30.0317 43.8775C28.8876 44.1142 27.8549 44.5815 27.1528 45.5827C26.9721 45.8403 26.7207 45.9047 26.4266 45.8741C23.6146 45.5816 20.7848 45.7274 17.9677 45.5145C13.244 45.1576 10.5442 42.2623 9.71505 39.1222C9.2188 37.2429 9.43716 35.3601 9.71017 33.479C9.79513 32.8936 9.8901 32.3097 9.97672 31.7246C10.0527 31.2117 9.88103 30.753 9.6501 30.2675Z" fill="#0C3DAA"/>
<path d="M28.0794 32.7948C26.9876 32.6151 25.878 32.3927 24.7178 32.1606C25.8786 31.9062 26.9886 32.2261 28.0794 32.7948Z" fill="#E8E4E1"/>
<path d="M18.6635 38.0377C18.2319 38.6442 17.4503 39.4514 16.5914 39.545C16.7046 39.2851 17.2064 38.8448 17.3901 38.6451C18.785 37.1289 19.0333 34.8619 17.9945 33.1231C16.9448 31.3661 14.8603 30.4384 12.9529 30.9416C11.1236 31.4243 9.88966 32.5822 9.47518 34.4481C9.04758 36.3731 9.66044 38.0136 11.2357 39.1848C12.7835 40.3355 14.4817 40.4167 16.2175 39.545C16.4206 39.4431 17.588 39.0326 17.8105 38.9694C17.3095 40.1675 15.2837 40.6699 14.2248 40.7264C12.0636 40.8417 10.0705 39.5801 9.20093 37.6443C8.32983 35.7052 8.65245 33.2984 10.1827 31.8469C10.8477 31.2161 11.8205 30.9098 12.7635 30.4622C14.1622 30.2974 15.3837 30.6088 16.5955 30.9886C17.1923 31.5717 17.7891 32.1548 18.439 32.8117C18.5994 32.9275 18.7191 33.0243 18.8122 33.0033C19.7702 32.787 20.6733 32.8861 21.5348 33.3817C21.6403 33.4423 21.8316 33.3535 21.9832 33.3339C22.7451 32.7469 23.5433 32.2363 24.6243 32.1004C25.8511 32.2822 26.9842 32.4876 28.1173 32.6929C30.0646 34.0477 31.1625 35.7953 30.6403 38.2606C30.2375 40.1623 29.0877 41.4629 27.2739 42.1095C25.4286 42.7674 23.6858 42.4549 22.177 41.2054C21.857 40.9404 21.2126 39.7891 21.0946 39.3445C22.0345 40.2955 23.596 41.601 24.937 41.7745C27.4065 42.0941 29.7098 40.3699 30.0844 37.8789C30.4701 35.3146 28.7556 32.9666 26.2126 32.5765C23.744 32.1977 21.3761 33.9068 20.9362 36.3272C20.6996 37.6289 21.1175 38.7674 21.6316 39.9044C21.3766 39.78 22.1129 40.9195 21.7951 40.7264C21.6725 40.5543 20.6213 39.1869 20.5615 39.0834C20.5615 39.0834 20.5611 39.032 20.5485 38.9694C20.5071 38.8637 20.4783 38.8206 20.4494 38.7775C20.4435 38.7217 20.4377 38.6658 20.4059 38.5216C20.0321 36.7686 20.4071 35.2461 21.3677 33.8444C20.7386 33.2971 20.0603 33.2273 19.3676 33.3465C19.2214 33.3716 18.9866 33.7362 19.0289 33.869C19.3924 35.0081 19.2175 36.1275 18.9691 37.3008C18.8541 37.5792 18.7643 37.8088 18.6717 38.0384C18.669 38.0386 18.6635 38.0377 18.6635 38.0377Z" fill="#E5E5E5"/>
<path d="M27.791 36.1168C27.7271 36.5724 27.9411 37.043 27.6453 37.387C27.5822 37.3749 27.5191 37.3629 27.4561 37.3509C27.4561 36.8235 27.4561 36.2961 27.4561 35.7688C27.4985 35.7505 27.541 35.7322 27.5834 35.7139C27.6523 35.8301 27.7212 35.9463 27.791 36.1168Z" fill="#CB592E"/>
<path d="M71.6893 44.1396C72.0788 43.833 72.4267 43.5409 72.7973 43.2813C73.8895 42.516 74.323 41.4727 74.1615 40.1617C74.1303 39.9086 74.125 39.6523 74.102 39.3118C74.6163 39.5211 74.9268 39.8851 75.1918 40.2772C76.118 41.6473 76.4556 43.1789 76.4073 44.8158C76.3801 45.7383 76.1995 46.6129 75.6772 47.3887C74.7585 48.7534 73.4124 48.9787 72.14 47.9898C70.8227 46.9661 70.6176 45.34 71.6893 44.1396Z" fill="#FDC503"/>
<path d="M47.6637 55.8542C48.4874 56.1624 48.8225 56.6991 48.6445 57.538C48.6169 57.6676 48.6441 57.8132 48.6661 57.9482C48.7528 58.4824 48.5592 58.6951 48.0295 58.6246C47.8745 58.604 47.7219 58.5602 47.5706 58.5183C47.1369 58.3982 46.8098 58.2587 46.8978 57.657C46.9894 57.0309 46.6237 56.5405 46.1386 56.1482C45.7591 55.8413 45.3197 55.6066 44.9766 55.2046C45.9959 54.9258 46.8908 55.0395 47.6637 55.8542Z" fill="#F9C923"/>
<path d="M9.65671 30.2205C9.63725 30.1944 9.61404 30.1711 9.59082 30.1477C9.62232 30.1594 9.65382 30.171 9.66504 30.2052C9.64476 30.2277 9.65296 30.2233 9.65671 30.2205Z" fill="#020202"/>
<path d="M76.3209 59.3086C76.617 59.2968 76.7827 59.4256 76.6802 59.6967C76.6544 59.7648 76.5598 60.0402 76.3503 59.8851C76.1517 59.7381 76.0222 59.5532 76.3209 59.3086Z" fill="#869198"/>
<path d="M29.0772 36.9581C29.0133 37.7792 28.9614 38.546 28.7326 39.2851C28.6274 39.625 28.4841 39.9494 28.2506 40.2233C27.5557 41.0382 26.4834 40.9059 26.0475 39.9301C25.6465 39.0327 25.648 38.0729 25.8642 37.1463C26.0028 36.5523 25.8427 36.3265 25.3046 36.1224C24.2474 35.7215 23.8312 34.875 24.1037 33.8892C24.1589 33.6893 24.2511 33.5219 24.4123 33.4018C24.7007 33.187 24.9304 33.1736 24.9617 33.6164C24.9756 33.8123 24.9636 34.0103 24.9578 34.2072C24.9321 35.0737 25.2739 35.4877 26.1479 35.5464C26.7757 35.5886 27.4086 35.5532 28.0392 35.5562C29.1227 35.5613 29.1227 35.5626 29.091 36.6064C29.088 36.705 29.0834 36.8034 29.0772 36.9581Z" fill="#F3F3F3"/>
<path d="M11.9178 36.0042C11.9983 35.4343 11.8987 35.0426 11.5047 34.6068C10.945 33.9878 10.7922 33.1671 11.1607 32.3446C11.2737 32.0923 11.4669 31.7933 11.7588 31.8709C12.0044 31.9362 11.9247 32.2764 11.9246 32.507C11.9246 32.6838 11.8991 32.8603 11.8888 33.0372C11.8327 33.9985 12.3 34.4331 13.2466 34.2952C13.6938 34.23 14.1393 34.1525 14.5865 34.0866C14.8621 34.046 15.1337 34.059 15.4073 34.1926C15.1135 35.0295 14.8404 35.8694 14.5225 36.692C14.2895 37.2947 13.8471 37.6829 13.1911 37.8249C12.7023 37.9307 12.4004 37.7577 12.2043 37.3158C12.0257 36.9134 11.9412 36.4942 11.9178 36.0042Z" fill="#F1F1F1"/>
<path d="M19.9135 40.6275C19.9134 40.8603 19.9319 41.0403 19.9098 41.2152C19.846 41.7201 20.1423 41.879 20.5649 41.9217C20.898 41.9553 21.2332 41.9698 21.5651 42.0116C21.8277 42.0447 22.4864 41.461 22.4571 41.7449C22.4286 42.0219 21.828 42.6767 21.5683 42.693C21.0436 42.7257 20.4598 42.7838 19.9954 42.564C19.6534 42.4021 19.3724 42.3677 19.0797 42.6337C18.8922 42.804 17.7433 42.011 17.539 41.7449C17.3453 41.4926 18.3614 42.1746 18.6293 42.0399C19.4612 41.6219 19.1196 40.8508 19.223 40.2134C19.2515 40.0371 19.1146 40.0472 19.0048 40.0109C18.4233 39.8191 17.9566 39.5228 18.004 38.8096C18.042 38.2389 18.5514 37.6937 19.2065 37.4908C19.7535 37.3214 20.2596 37.438 20.7434 37.6987C21.1289 37.9065 21.0941 38.2905 21.0787 38.6375C21.0568 39.1307 20.9179 39.647 20.4042 39.7825C19.91 39.9129 19.87 40.1813 19.9135 40.6275Z" fill="#F3F3F3"/>
<path d="M11.7138 25.0921C11.4342 24.4714 11.018 23.9938 10.6591 23.4778C10.4238 23.1394 10.1998 22.7907 10.0034 22.4289C9.91065 22.2582 9.68152 22.0252 9.87819 21.8631C10.0954 21.684 10.3664 21.8513 10.5776 22.0039C10.6879 22.0837 10.7958 22.1806 10.8715 22.2923C11.4566 23.1547 12.0747 23.9986 12.6008 24.8962C13.0624 25.6836 12.4203 26.7819 11.514 26.8832C11.2702 26.9104 11.2507 26.7893 11.2693 26.6069C11.2949 26.3554 11.4316 26.1493 11.6089 26.0012C11.9277 25.735 11.9462 25.4574 11.7138 25.0921Z" fill="#F1F1F1"/>
<path d="M41.9072 26.0889C41.9129 26.3167 41.9178 26.5176 41.7195 26.5923C41.5194 26.6677 41.3991 26.4914 41.2741 26.3716C40.9973 26.106 40.9038 25.7368 41.1169 25.4578C42.018 24.2775 43.1446 23.3892 44.6134 23.0076C44.7027 22.9844 44.8075 23.0206 44.9436 23.0326C44.7497 23.5317 44.3641 23.8361 43.9838 24.1291C43.4069 24.5736 42.8088 24.9909 42.2136 25.4111C41.9891 25.5696 41.8324 25.7459 41.9072 26.0889Z" fill="#F1F1F1"/>
<path d="M27.7488 39.4026C27.5507 39.6465 27.3729 39.9491 27.0946 39.8846C26.8258 39.8222 26.7265 39.4897 26.6583 39.2222C26.4491 38.4023 26.5558 37.5818 26.6705 36.7599C26.7166 36.4297 26.9501 36.4995 27.152 36.4779C28.2469 36.3605 28.2697 36.3782 28.2611 37.5089C28.2562 38.1677 28.1259 38.7973 27.7488 39.4026Z" fill="#0B0B0B"/>
<path d="M13.7216 35.118C14.0666 35.0556 14.29 35.0419 14.1269 35.4662C13.9592 35.9026 13.9066 36.3873 13.5791 36.7537C13.4311 36.9193 13.2303 37.0711 13.0188 37.0215C12.8077 36.972 12.8145 36.7098 12.7659 36.5241C12.7413 36.4303 12.7438 36.329 12.7378 36.2309C12.6755 35.2061 12.6758 35.2061 13.7216 35.118Z" fill="#0B0B0B"/>
<path d="M20.1654 38.8195C19.7618 39.1987 19.323 39.2177 18.8714 39.083C18.4663 38.9621 18.4805 38.6892 18.6954 38.4045C18.8578 38.1893 19.8946 38.0715 20.0929 38.2392C20.2635 38.3834 20.2622 38.5801 20.1654 38.8195Z" fill="#0B0B0B"/>
</svg>
